{"title":"Wakhra Swag - Official Video - Navv Inder feat. Badshah - Full H","uid":12423703,"size":29549382,"categoryP":"video","categoryS":"music_videos","magnet":"?xt=urn:btih:53717225dde70dcfe39f82a7a91bdedb690dc4bd&amp;dn=Wakhra+Swag+-+Official+Video+-+Navv+Inder+feat.+Badshah+-+Full+H&amp;tr=udp%3A%2F%2Ftracker.openbittorrent.com%3A80&amp;tr=udp%3A%2F%2Fopen.demonii.com%3A1337&amp;tr=udp%3A%2F%2Ftracker.coppersurfer.tk%3A6969&amp;tr=udp%3A%2F%2Fexodus.desync.com%3A6969","seeders":1,"leechers":0,"uploader":"Aainul","files":5,"time":1442344070,"description":"Wakhra Swag - Official Video - Navv Inder feat  Badshah - Full HD 1080p - Team truHD HEVC \n\n\n\nTeam truHD HEVC Presents \n\n\nSource: WEB-DL \n\nEncoder: truHD HEVC Encoding Team \n\nEncoded File Info: \n\nGeneral \n\nFormat                                   : MPEG-4 \nFormat profile                           : Base Media \nCodec ID                                 : iso4 \nFile size                                : 28.0 MiB \nDuration                                 : 3mn 39s \nOverall bit rate                         : 1 068 Kbps \nEncoded date                             : UTC 2015-09-14 13:11:30 \nTagged date                              : UTC 2015-09-14 13:11:30 \n\nVideo \nID                                       : 1 \nFormat                                   : HEVC \nFormat/Info                              : High Efficiency Video Coding \nCodec ID                                 : hvc1 \nCodec ID/Info                            : High Efficiency Video Coding \nDuration                                 : 3mn 39s \nBit rate                                 : 873 Kbps \nMaximum bit rate                         : 2 424 Kbps \nWidth                                    : 1 920 pixels \nHeight                                   : 1 080 pixels \nDisplay aspect ratio                     : 16:9 \nFrame rate mode                          : Constant \nFrame rate                               : 25.000 fps \nBits/(Pixel*Frame)                       : 0.017 \nStream size                              : 22.9 MiB (82%) \nTitle                                    : Video \nEncoded date                             : UTC 2015-09-14 13:11:30 \nTagged date                              : UTC 2015-09-14 13:11:32 \n\nAudio \nID                                       : 2 \nFormat                                   : AC-3 \nFormat/Info                              : Audio Coding 3 \nMode extension                           : CM (complete main) \nFormat settings, Endianness              : Big \nCodec ID                                 : ac-3 \nDuration                                 : 3mn 39s \nBit rate mode                            : Constant \nBit rate                                 : 192 Kbps \nMaximum bit rate                         : 203 Kbps \nChannel(s)                               : 6 channels \nChannel positions                        : Front: L C R, Side: L R, LFE \nSampling rate                            : 48.0 KHz \nBit depth                                : 16 bits \nCompression mode                         : Lossy \nStream size                              : 5.03 MiB (18%) \nTitle                                    : Team truHD truAudio \nEncoded date                             : UTC 2015-09-14 13:11:32 \nTagged date                              : UTC 2015-09-14 13:11:32 \n\n\nScreenShots: \n\n\n &lt;a href=&quot;\nhttp://i.imgur.com/7w63BXj.jpg&quot; rel=&quot;nofollow&quot; target=&quot;_NEW&quot;&gt;\nhttp://i.imgur.com/7w63BXj.jpg&lt;/a&gt;\n\n\nLike Us On FB And Request Accepted\n\nKickAssTorrents:        &lt;a href=&quot;\nhttps://kat.cr/user/Aainul/&quot; rel=&quot;nofollow&quot; target=&quot;_NEW&quot;&gt;\nhttps://kat.cr/user/Aainul/&lt;/a&gt;\nGloTorrents:        &lt;a href=&quot;\nhttps://glodls.to/user/Aainul&quot; rel=&quot;nofollow&quot; target=&quot;_NEW&quot;&gt;\nhttps://glodls.to/user/Aainul&lt;/a&gt;\nThePirateBay:        &lt;a href=&quot;\nhttps://thepiratebay.vg/user/Aainul/&quot; rel=&quot;nofollow&quot; target=&quot;_NEW&quot;&gt;\nhttps://thepiratebay.vg/user/Aainul/&lt;/a&gt;\n1337x Torrents:        &lt;a href=&quot;\nhttp://1337.to/user/Aainul/&quot; rel=&quot;nofollow&quot; target=&quot;_NEW&quot;&gt;\nhttp://1337.to/user/Aainul/&lt;/a&gt;\n\n\nNote: All Videos Uploaded By Me Are For Review Purpose. If You Like IT, Google IT And Buy IT - Thanks\n\n\nKing Regards\ntruHD HEVC Team\n\nShare Among Friends And Relatives","torrent":{"xt":"urn:btih:53717225dde70dcfe39f82a7a91bdedb690dc4bd","amp;dn":"Wakhra+Swag+-+Official+Video+-+Navv+Inder+feat.+Badshah+-+Full+H","amp;tr":["udp%3A%2F%2Ftracker.openbittorrent.com%3A80","udp%3A%2F%2Fopen.demonii.com%3A1337","udp%3A%2F%2Ftracker.coppersurfer.tk%3A6969","udp%3A%2F%2Fexodus.desync.com%3A6969"],"infoHash":"53717225dde70dcfe39f82a7a91bdedb690dc4bd","infoHashBuffer":{"type":"Buffer","data":[83,113,114,37,221,231,13,207,227,159,130,167,169,27,222,219,105,13,196,189]},"announce":[],"urlList":[]}}